<svg xmlns="http://www.w3.org/2000/svg" enable-background="new 0 0 50 50" viewBox="0 0 50 50"><path fill="#444445" d="M1,38.43V11.2996c0-1.7289,1.4015-3.1304,3.1304-3.1304h41.7391C47.5985,8.1691,49,9.5707,49,11.2996
			V38.43c0,1.7289-1.4015,3.1304-3.1304,3.1304H4.1304C2.4015,41.5604,1,40.1589,1,38.43z"/><rect width="41.739" height="27.13" x="4.13" y="11.3" fill="#59B1E3"/><rect width="12.53" height="4.79" x="18.735" y="41.557" fill="#E4E4E3"/><path fill="#C7C7C7" d="M33.8211,48.0432l-2.5603-1.6935H18.7391l-2.5603,1.6935C15.7474,48.3284,15.9494,49,16.4666,49h17.0667
			C34.0504,49,34.2524,48.3284,33.8211,48.0432z"/><rect width="34.45" height="32.43" x="7.775" y="6.002" fill="#EFEFED"/><path fill="#C7C7C7" d="M7.7774,3v3h34.4433V3c0-1.1046-0.8954-2-2-2H9.7774C8.6729,1,7.7774,1.8955,7.7774,3z"/><circle cx="11.65" cy="3.5" r="1.1" fill="#FFF"/><circle cx="15.304" cy="3.5" r="1.076" fill="#FFF"/><circle cx="18.958" cy="3.5" r="1.1" fill="#FFF"/><path fill="#696967" d="M39.4494,3.5022c0,0.4125-0.33,0.75-0.75,0.75h-10.445c-0.4125,0-0.75-0.3375-0.75-0.75
				c0-0.4125,0.3375-0.75,0.75-0.75h10.445C39.1194,2.7522,39.4494,3.0897,39.4494,3.5022z"/><rect width="30" height="5" x="10" y="8.446" fill="#83BD57"/><rect width="15.001" height="12.641" x="24.999" y="15.636" fill="#E9715F"/><rect width="7.771" height="1" x="15.363" y="16.274" fill="#C7C7C7"/><rect width="3.097" height="1" x="10" y="16.274" fill="#C7C7C7"/><rect width="3.102" height="1" x="20.032" y="20.017" fill="#C7C7C7"/><rect width="7.795" height="1" x="10" y="20.017" fill="#C7C7C7"/><rect width="5.755" height="1" x="17.379" y="23.758" fill="#C7C7C7"/><rect width="5.363" height="1" x="10" y="23.758" fill="#C7C7C7"/><rect width="3.405" height="1" x="19.728" y="27.5" fill="#C7C7C7"/><rect width="7.795" height="1" x="10" y="27.5" fill="#C7C7C7"/><rect width="4.186" height="1" x="35.813" y="31.242" fill="#C7C7C7"/><rect width="6.978" height="1" x="26.045" y="31.242" fill="#C7C7C7"/><rect width="6.28" height="1" x="16.974" y="31.242" fill="#C7C7C7"/><rect width="4.885" height="1" x="10" y="31.242" fill="#C7C7C7"/><rect width="3.386" height="1" x="36.614" y="34.984" fill="#C7C7C7"/><rect width="3.386" height="1" x="31.197" y="34.984" fill="#C7C7C7"/><rect width="6.094" height="1" x="22.395" y="34.984" fill="#C7C7C7"/><rect width="3.447" height="1" x="16.894" y="34.984" fill="#C7C7C7"/><rect width="4.137" height="1" x="10" y="34.984" fill="#C7C7C7"/></svg>